<svg width="1200" height="760" viewBox="0 0 1200 760" fill="none" xmlns="http://www.w3.org/2000/svg">
  <rect width="1200" height="760" rx="40" fill="#F7F9FC"/>
  <rect x="44" y="44" width="1112" height="672" rx="34" fill="white" stroke="#D7E2F0" stroke-width="2"/>
  <rect x="84" y="94" width="1032" height="122" rx="30" fill="#0F172A"/>
  <text x="130" y="156" fill="#F8FAFC" font-family="Plus Jakarta Sans, Segoe UI, sans-serif" font-size="38" font-weight="700">Reproducible crack detection workflow</text>
  <text x="130" y="194" fill="#94A3B8" font-family="Plus Jakarta Sans, Segoe UI, sans-serif" font-size="24">Prepare, audit, train, validate, report, export, demo.</text>
  <rect x="118" y="314" width="180" height="130" rx="28" fill="#E0ECFF"/>
  <rect x="352" y="314" width="180" height="130" rx="28" fill="#E0ECFF"/>
  <rect x="586" y="314" width="180" height="130" rx="28" fill="#E0ECFF"/>
  <rect x="820" y="314" width="180" height="130" rx="28" fill="#E0ECFF"/>
  <text x="153" y="370" fill="#0F172A" font-family="Plus Jakarta Sans, Segoe UI, sans-serif" font-size="28" font-weight="700">Prepare</text>
  <text x="164" y="404" fill="#334155" font-family="Plus Jakarta Sans, Segoe UI, sans-serif" font-size="22">dataset</text>
  <text x="410" y="370" fill="#0F172A" font-family="Plus Jakarta Sans, Segoe UI, sans-serif" font-size="28" font-weight="700">Audit</text>
  <text x="401" y="404" fill="#334155" font-family="Plus Jakarta Sans, Segoe UI, sans-serif" font-size="22">labels</text>
  <text x="644" y="370" fill="#0F172A" font-family="Plus Jakarta Sans, Segoe UI, sans-serif" font-size="28" font-weight="700">Train</text>
  <text x="622" y="404" fill="#334155" font-family="Plus Jakarta Sans, Segoe UI, sans-serif" font-size="22">detector</text>
  <text x="862" y="370" fill="#0F172A" font-family="Plus Jakarta Sans, Segoe UI, sans-serif" font-size="28" font-weight="700">Demo</text>
  <text x="861" y="404" fill="#334155" font-family="Plus Jakarta Sans, Segoe UI, sans-serif" font-size="22">Gradio</text>
  <path d="M298 379H352" stroke="#2563EB" stroke-width="10" stroke-linecap="round"/>
  <path d="M532 379H586" stroke="#2563EB" stroke-width="10" stroke-linecap="round"/>
  <path d="M766 379H820" stroke="#2563EB" stroke-width="10" stroke-linecap="round"/>
  <path d="M320 361L352 379L320 397" fill="none" stroke="#2563EB" stroke-width="10" stroke-linecap="round" stroke-linejoin="round"/>
  <path d="M554 361L586 379L554 397" fill="none" stroke="#2563EB" stroke-width="10" stroke-linecap="round" stroke-linejoin="round"/>
  <path d="M788 361L820 379L788 397" fill="none" stroke="#2563EB" stroke-width="10" stroke-linecap="round" stroke-linejoin="round"/>
  <rect x="208" y="526" width="784" height="112" rx="28" fill="#EEF4FF" stroke="#C9DBF7" stroke-width="2"/>
  <text x="276" y="589" fill="#1D4ED8" font-family="Plus Jakarta Sans, Segoe UI, sans-serif" font-size="32" font-weight="700">Config-driven scripts + data hygiene + validation artifacts</text>
</svg>
